# Blender v2.93.1 OBJ File: '4_lights.blend'
# www.blender.org
o light_2_Plane.006
v 1.214816 -2.918893 6.115832
v 0.932006 -2.918893 6.115832
v 1.136714 -3.081107 5.884168
v 1.015815 -3.081107 5.884168
vt 0.000000 0.000000
vt 0.000000 1.000000
vt 1.000000 1.000000
vt 1.000000 0.000000
vn 0.0000 0.8192 -0.5736
s off
f 1/1/1 3/2/1 4/3/1
f 1/1/1 4/3/1 2/4/1
o light_1_Circle.001
v 2.132710 -3.000000 6.000000
v 2.132710 -3.031886 5.954462
v 2.143555 -3.031274 5.955337
v 2.153984 -3.029459 5.957928
v 2.163595 -3.026513 5.962136
v 2.172019 -3.022547 5.967799
v 2.178933 -3.017715 5.974700
v 2.184070 -3.012203 5.982573
v 2.187234 -3.006221 5.991116
v 2.188302 -3.000000 6.000000
v 2.187234 -2.993779 6.008884
v 2.184070 -2.987797 6.017427
v 2.178933 -2.982285 6.025300
v 2.172019 -2.977453 6.032201
v 2.163595 -2.973487 6.037864
v 2.153984 -2.970541 6.042072
v 2.143555 -2.968726 6.044663
v 2.132710 -2.968114 6.045538
v 2.121864 -2.968726 6.044663
v 2.111435 -2.970541 6.042072
v 2.101824 -2.973487 6.037864
v 2.093400 -2.977453 6.032201
v 2.086486 -2.982285 6.025300
v 2.081349 -2.987797 6.017427
v 2.078185 -2.993779 6.008884
v 2.077117 -3.000000 6.000000
v 2.078185 -3.006221 5.991116
v 2.081349 -3.012203 5.982573
v 2.086486 -3.017715 5.974700
v 2.093400 -3.022547 5.967799
v 2.101824 -3.026513 5.962136
v 2.111435 -3.029459 5.957928
v 2.121864 -3.031274 5.955337
vt 0.500000 0.500000
vt 0.402455 0.990393
vt 0.500000 1.000000
vt 0.308658 0.961940
vt 0.222215 0.915735
vt 0.146447 0.853553
vt 0.084265 0.777785
vt 0.038060 0.691342
vt 0.009607 0.597545
vt 0.000000 0.500000
vt 0.009607 0.402455
vt 0.038060 0.308658
vt 0.084265 0.222215
vt 0.146447 0.146447
vt 0.222215 0.084265
vt 0.308658 0.038060
vt 0.402455 0.009607
vt 0.500000 0.000000
vt 0.597545 0.009607
vt 0.691342 0.038060
vt 0.777785 0.084265
vt 0.853553 0.146447
vt 0.915735 0.222215
vt 0.961940 0.308658
vt 0.990393 0.402455
vt 1.000000 0.500000
vt 0.990393 0.597545
vt 0.961940 0.691342
vt 0.915735 0.777785
vt 0.853553 0.853553
vt 0.777785 0.915735
vt 0.691342 0.961940
vt 0.597545 0.990393
vn -0.0000 0.8191 -0.5736
vn -0.0000 0.8192 -0.5736
vn -0.0001 0.8191 -0.5736
vn 0.0000 0.8192 -0.5735
vn 0.0001 0.8191 -0.5736
s off
f 5/5/2 7/6/2 6/7/2
f 5/5/3 8/8/3 7/6/3
f 5/5/3 9/9/3 8/8/3
f 5/5/4 10/10/4 9/9/4
f 5/5/5 11/11/5 10/10/5
f 5/5/2 12/12/2 11/11/2
f 5/5/3 13/13/3 12/12/3
f 5/5/2 14/14/2 13/13/2
f 5/5/2 15/15/2 14/14/2
f 5/5/3 16/16/3 15/15/3
f 5/5/2 17/17/2 16/16/2
f 5/5/5 18/18/5 17/17/5
f 5/5/6 19/19/6 18/18/6
f 5/5/3 20/20/3 19/19/3
f 5/5/3 21/21/3 20/20/3
f 5/5/2 22/22/2 21/21/2
f 5/5/2 23/23/2 22/22/2
f 5/5/3 24/24/3 23/23/3
f 5/5/3 25/25/3 24/24/3
f 5/5/4 26/26/4 25/25/4
f 5/5/5 27/27/5 26/26/5
f 5/5/2 28/28/2 27/27/2
f 5/5/3 29/29/3 28/28/3
f 5/5/2 30/30/2 29/29/2
f 5/5/2 31/31/2 30/30/2
f 5/5/3 32/32/3 31/31/3
f 5/5/2 33/33/2 32/32/2
f 5/5/5 34/34/5 33/33/5
f 5/5/6 35/35/6 34/34/6
f 5/5/3 36/36/3 35/35/3
f 5/5/3 37/37/3 36/36/3
f 5/5/2 6/7/2 37/37/2
o light_4_Circle.002
v -1.952705 -3.000000 6.000000
v -1.952705 -2.711538 6.411966
v -2.388244 -2.855769 6.205983
v -2.388244 -3.144231 5.794017
v -1.952705 -3.288462 5.588034
v -1.517166 -3.144231 5.794017
v -1.517166 -2.855769 6.205983
vt 0.500000 0.500000
vt 0.500000 1.000000
vt 0.066987 0.750000
vt 0.066987 0.250000
vt 0.500000 0.000000
vt 0.933013 0.250000
vt 0.933013 0.750000
vn -0.0000 -0.8192 0.5736
s off
f 38/38/7 39/39/7 40/40/7
f 38/38/7 40/40/7 41/41/7
f 38/38/7 41/41/7 42/42/7
f 38/38/7 42/42/7 43/43/7
f 38/38/7 43/43/7 44/44/7
f 38/38/7 44/44/7 39/39/7
o light_3_Circle.003
v -0.296789 -3.000000 6.000000
v -0.296789 -2.810035 6.271298
v -0.611773 -2.941298 6.083836
v -0.491460 -3.153685 5.780515
v -0.102117 -3.153685 5.780515
v 0.018196 -2.941298 6.083836
vt 0.500000 0.500000
vt 0.500000 1.000000
vt 0.024472 0.654508
vt 0.206107 0.095491
vt 0.793893 0.095492
vt 0.975528 0.654509
vn 0.0000 -0.8192 0.5736
s off
f 45/45/8 46/46/8 47/47/8
f 45/45/8 47/47/8 48/48/8
f 45/45/8 48/48/8 49/49/8
f 45/45/8 49/49/8 50/50/8
f 45/45/8 50/50/8 46/46/8
o wall_1_Plane.010
v -6.635441 -5.299155 -3.164765
v 6.635441 -5.299155 -3.164765
v -6.635441 -5.299156 11.559622
v 6.635441 -5.299156 11.559622
vt 1.000000 0.000000
vt 0.000000 1.000000
vt 0.000000 0.000000
vt 1.000000 1.000000
vn 0.0000 -1.0000 -0.0000
s off
f 52/51/9 53/52/9 51/53/9
f 52/51/9 54/54/9 53/52/9
o wall_2_Plane.011
v -6.020717 -6.767260 0.000000
v 6.020717 -6.767260 0.000000
v -6.020717 14.227312 0.000000
v 6.020717 14.227312 0.000000
vt 1.000000 0.000000
vt 0.000000 1.000000
vt 0.000000 0.000000
vt 1.000000 1.000000
vn 0.0000 0.0000 1.0000
s off
f 56/55/10 57/56/10 55/57/10
f 56/55/10 58/58/10 57/56/10
o wall_3_Plane.012
v -4.548506 -7.103652 13.460423
v -4.548507 -7.103652 -2.895577
v -4.548506 12.990582 13.460423
v -4.548507 12.990582 -2.895577
vt 1.000000 0.000000
vt 0.000000 1.000000
vt 0.000000 0.000000
vt 1.000000 1.000000
vn 1.0000 0.0000 -0.0000
s off
f 60/59/11 61/60/11 59/61/11
f 60/59/11 62/62/11 61/60/11
o wall_4_Plane.013
v 4.755446 12.807974 11.514513
v 4.755445 12.807974 -3.533243
v 4.755446 -5.881475 11.514513
v 4.755445 -5.881475 -3.533243
vt 1.000000 0.000000
vt 0.000000 0.000000
vt 0.000000 1.000000
vt 1.000000 1.000000
vn 1.0000 0.0000 -0.0000
s off
f 64/63/12 63/64/12 65/65/12
f 64/63/12 65/65/12 66/66/12
o wall_5_Plane.014
v -6.775236 12.346797 -11.045179
v 6.775236 12.346797 -11.045179
v -6.775236 12.346795 14.229889
v 6.775236 12.346795 14.229889
vt 1.000000 0.000000
vt 0.000000 1.000000
vt 0.000000 0.000000
vt 1.000000 1.000000
vn 0.0000 -1.0000 -0.0000
s off
f 68/67/13 69/68/13 67/69/13
f 68/67/13 70/70/13 69/68/13
o board_1_Plane.015
v -2.303021 -3.021281 4.584257
v 2.440773 -2.996499 4.579611
v -2.396511 -2.003999 3.988774
v 2.347283 -1.979216 3.984128
vt 0.000000 0.000000
vt 1.000000 1.000000
vt 0.000000 1.000000
vt 1.000000 0.000000
vn -0.0018 0.5051 0.8631
s off
f 71/71/14 74/72/14 73/73/14
f 71/71/14 72/74/14 74/72/14
o board_2_Plane.016
v -2.379327 -1.834794 3.885874
v 2.344563 -1.834794 3.885874
v -2.307802 -0.660521 3.502730
v 2.232910 -0.660521 3.502730
vt 0.000000 0.000000
vt 1.000000 1.000000
vt 0.000000 1.000000
vt 1.000000 0.000000
vn 0.0000 0.3102 0.9507
s off
f 75/75/15 78/76/15 77/77/15
f 75/75/15 76/78/15 78/76/15
o board_3_Plane.001
v -2.290536 -0.523630 3.472148
v 2.184603 -0.523630 3.472148
v -2.168281 0.691619 3.245574
v 2.095263 0.691619 3.245574
vt 1.000000 0.000000
vt 0.000000 1.000000
vt 0.000000 0.000000
vt 1.000000 1.000000
vn 0.0000 0.1833 0.9831
s off
f 80/79/16 81/80/16 79/81/16
f 80/79/16 82/82/16 81/80/16
o board_4_Plane.002
v -2.163544 0.851957 3.224579
v 2.033392 0.851957 3.224579
v -2.024607 1.993533 3.133309
v 1.921996 1.993533 3.133309
vt 1.000000 0.000000
vt 0.000000 1.000000
vt 0.000000 0.000000
vt 1.000000 1.000000
vn 0.0000 0.0797 0.9968
s off
f 84/83/17 85/84/17 83/85/17
f 84/83/17 86/86/17 85/84/17
o wall_6_Plane.003
v -6.930404 -6.645310 10.964990
v 6.930404 -6.645310 10.964990
v -6.930404 13.128062 10.964990
v 6.930404 13.128062 10.964990
vt 1.000000 0.000000
vt 0.000000 1.000000
vt 0.000000 0.000000
vt 1.000000 1.000000
vn 0.0000 0.0000 1.0000
s off
f 88/87/18 89/88/18 87/89/18
f 88/87/18 90/90/18 89/88/18
o light_5_Plane
v -1.946843 -1.946843 10.982707
v 1.946843 -1.946843 10.982707
v -1.946843 1.946843 10.982707
v 1.946843 1.946843 10.982707
v -1.946843 -1.946843 10.885365
v 1.946843 -1.946843 10.885365
v -1.946843 1.946843 10.885365
v 1.946843 1.946843 10.885365
vt 1.000000 0.000000
vt 0.000000 1.000000
vt 0.000000 0.000000
vt 0.000000 1.000000
vt 1.000000 0.000000
vt 0.000000 0.000000
vt 1.000000 1.000000
vt 1.000000 1.000000
vn 0.0000 0.0000 1.0000
vn 0.0000 0.0000 -1.0000
vn -1.0000 0.0000 0.0000
vn 0.0000 -1.0000 0.0000
vn 1.0000 0.0000 0.0000
vn 0.0000 1.0000 0.0000
s off
f 92/91/19 93/92/19 91/93/19
f 97/94/20 96/95/20 95/96/20
f 93/92/21 95/96/21 91/93/21
f 91/93/22 96/95/22 92/91/22
f 92/91/23 98/97/23 94/98/23
f 94/98/24 97/94/24 93/92/24
f 92/91/19 94/98/19 93/92/19
f 97/94/20 98/97/20 96/95/20
f 93/92/21 97/94/21 95/96/21
f 91/93/22 95/96/22 96/95/22
f 92/91/23 96/95/23 98/97/23
f 94/98/24 98/97/24 97/94/24
