# Blender v2.93.1 OBJ File: 'container_scene.blend'
# www.blender.org
mtllib wall.mtl
o Plane
v -11.270183 0.000000 11.270183
v 11.270183 0.000000 11.270183
v -11.270183 0.000000 -11.270183
v 11.270183 0.000000 -11.270183
vt 0.000000 0.000000
vt 1.000000 0.000000
vt 1.000000 1.000000
vt 0.000000 1.000000
vn 0.0000 1.0000 0.0000
usemtl None
s off
f 1/1/1 2/2/1 4/3/1 3/4/1
o Plane.001
v -11.238850 11.736535 11.736535
v -11.238852 -11.736535 11.736535
v -11.238850 11.736535 -11.736535
v -11.238852 -11.736535 -11.736535
vt 0.000000 0.000000
vt 1.000000 0.000000
vt 1.000000 1.000000
vt 0.000000 1.000000
vn 1.0000 -0.0000 0.0000
usemtl None
s off
f 5/5/2 6/6/2 8/7/2 7/8/2
o Plane.002
v -11.288007 -11.288007 11.261933
v 11.288007 -11.288007 11.261933
v -11.288007 11.288007 11.261935
v 11.288007 11.288007 11.261935
vt 0.000000 0.000000
vt 1.000000 0.000000
vt 1.000000 1.000000
vt 0.000000 1.000000
vn 0.0000 -0.0000 1.0000
usemtl None
s off
f 9/9/3 10/10/3 12/11/3 11/12/3
o Plane.003
v 11.156841 11.736535 11.736535
v 11.156839 -11.736535 11.736535
v 11.156841 11.736535 -11.736535
v 11.156839 -11.736535 -11.736535
vt 0.000000 0.000000
vt 1.000000 0.000000
vt 1.000000 1.000000
vt 0.000000 1.000000
vn 1.0000 -0.0000 0.0000
usemtl None
s off
f 13/13/4 14/14/4 16/15/4 15/16/4
