# Blender v2.93.1 OBJ File: 'Table 03.blend'
# www.blender.org
mtllib wall.mtl
o Plane
v -7.629314 0.000000 7.629314
v 7.629314 0.000000 7.629314
v -7.629314 0.000000 -7.629314
v 7.629314 0.000000 -7.629314
vt 0.000000 0.000000
vt 1.000000 0.000000
vt 1.000000 1.000000
vt 0.000000 1.000000
vn 0.0000 1.0000 0.0000
usemtl None
s off
f 1/1/1 2/2/1 4/3/1 3/4/1
o Plane.001
v -5.371965 -4.014661 -5.361164
v 5.371965 -4.014661 -5.361164
v -5.371965 6.729269 -5.361164
v 5.371965 6.729269 -5.361164
vt 0.000000 0.000000
vt 1.000000 0.000000
vt 1.000000 1.000000
vt 0.000000 1.000000
vn 0.0000 0.0000 1.0000
usemtl None
s off
f 5/5/2 6/6/2 8/7/2 7/8/2
o Plane.002_Plane.003
v -5.371965 -4.014661 5.265482
v 5.371965 -4.014661 5.265482
v -5.371965 6.729269 5.265482
v 5.371965 6.729269 5.265482
vt 0.000000 0.000000
vt 1.000000 0.000000
vt 1.000000 1.000000
vt 0.000000 1.000000
vn 0.0000 0.0000 1.0000
usemtl None
s off
f 9/9/3 10/10/3 12/11/3 11/12/3
o Plane.003_Plane.004
v 5.384978 6.693749 5.308663
v 5.384978 -3.923577 5.308663
v 5.384978 6.693749 -5.308663
v 5.384978 -3.923577 -5.308663
vt 0.000000 0.000000
vt 1.000000 0.000000
vt 1.000000 1.000000
vt 0.000000 1.000000
vn 1.0000 0.0000 0.0000
usemtl None
s off
f 13/13/4 14/14/4 16/15/4 15/16/4
o Plane.004_Plane.005
v -5.361351 6.667716 5.361351
v 5.361351 6.667716 5.361351
v -5.361351 6.667716 -5.361351
v 5.361351 6.667716 -5.361351
vt 0.000000 0.000000
vt 1.000000 0.000000
vt 1.000000 1.000000
vt 0.000000 1.000000
vn 0.0000 1.0000 0.0000
usemtl None
s off
f 17/17/5 18/18/5 20/19/5 19/20/5
