# Blender v2.93.1 OBJ File: 'mis.blend'
# www.blender.org
o light_1_Circle
v -2.675903 4.920775 1.121641
v -3.030441 4.896084 1.146332
v -3.371354 4.822958 1.219457
v -3.685541 4.704209 1.338206
v -3.960928 4.544400 1.498016
v -4.186933 4.349672 1.692744
v -4.354869 4.127508 1.914908
v -4.458284 3.886446 2.155970
v -4.493203 3.635750 2.406666
v -4.458284 3.385054 2.657362
v -4.354869 3.143992 2.898424
v -4.186933 2.921828 3.120588
v -3.960928 2.727100 3.315316
v -3.685541 2.567291 3.475125
v -3.371354 2.448542 3.593874
v -3.030441 2.375416 3.667000
v -2.675903 2.350725 3.691691
v -2.321366 2.375416 3.667000
v -1.980453 2.448542 3.593874
v -1.666266 2.567291 3.475125
v -1.390879 2.727100 3.315316
v -1.164874 2.921828 3.120588
v -0.996938 3.143992 2.898424
v -0.893523 3.385054 2.657362
v -0.858604 3.635750 2.406666
v -0.893523 3.886446 2.155970
v -0.996938 4.127508 1.914908
v -1.164874 4.349671 1.692744
v -1.390878 4.544400 1.498016
v -1.666266 4.704209 1.338206
v -1.980453 4.822958 1.219457
v -2.321366 4.896084 1.146332
vt 0.000000 0.000000
vt 0.000000 0.000000
vt 0.000000 0.000000
vt 0.000000 0.000000
vt 0.000000 0.000000
vt 0.000000 0.000000
vt 0.000000 0.000000
vt 0.000000 0.000000
vt 0.000000 0.000000
vt 0.000000 0.000000
vt 0.000000 0.000000
vt 0.000000 0.000000
vt 0.000000 0.000000
vt 0.000000 0.000000
vt 0.000000 0.000000
vt 0.000000 0.000000
vt 0.000000 0.000000
vt 0.000000 0.000000
vt 0.000000 0.000000
vt 0.000000 0.000000
vt 0.000000 0.000000
vt 0.000000 0.000000
vt 0.000000 0.000000
vt 0.000000 0.000000
vt 0.000000 0.000000
vt 0.000000 0.000000
vt 0.000000 0.000000
vt 0.000000 0.000000
vt 0.000000 0.000000
vt 0.000000 0.000000
vt 0.000000 0.000000
vt 0.000000 0.000000
vn 0.0000 0.7071 0.7071
s off
f 1/1/1 9/2/1 17/3/1
f 1/1/1 2/4/1 5/5/1
f 2/4/1 3/6/1 5/5/1
f 3/6/1 4/7/1 5/5/1
f 5/5/1 6/8/1 7/9/1
f 7/9/1 8/10/1 5/5/1
f 8/10/1 9/2/1 5/5/1
f 9/2/1 10/11/1 13/12/1
f 10/11/1 11/13/1 13/12/1
f 11/13/1 12/14/1 13/12/1
f 13/12/1 14/15/1 15/16/1
f 15/16/1 16/17/1 17/3/1
f 17/3/1 18/18/1 19/19/1
f 19/19/1 20/20/1 21/21/1
f 21/21/1 22/22/1 23/23/1
f 23/23/1 24/24/1 21/21/1
f 24/24/1 25/25/1 21/21/1
f 25/25/1 26/26/1 27/27/1
f 27/27/1 28/28/1 25/25/1
f 28/28/1 29/29/1 25/25/1
f 29/29/1 30/30/1 31/31/1
f 31/31/1 32/32/1 29/29/1
f 32/32/1 1/1/1 29/29/1
f 13/12/1 15/16/1 9/2/1
f 15/16/1 17/3/1 9/2/1
f 17/3/1 19/19/1 25/25/1
f 19/19/1 21/21/1 25/25/1
f 1/1/1 5/5/1 9/2/1
f 25/25/1 29/29/1 17/3/1
f 29/29/1 1/1/1 17/3/1
o light_2_Circle.001
v 2.642471 3.724389 2.318027
v 2.618016 3.722686 2.319730
v 2.594500 3.717642 2.324774
v 2.572828 3.709450 2.332965
v 2.553832 3.698427 2.343989
v 2.538243 3.684995 2.357421
v 2.526659 3.669671 2.372745
v 2.519526 3.653043 2.389373
v 2.517117 3.635750 2.406666
v 2.519526 3.618458 2.423958
v 2.526659 3.601830 2.440586
v 2.538243 3.586505 2.455911
v 2.553832 3.573073 2.469343
v 2.572828 3.562050 2.480366
v 2.594500 3.553859 2.488557
v 2.618016 3.548815 2.493601
v 2.642471 3.547111 2.495305
v 2.666926 3.548815 2.493601
v 2.690442 3.553859 2.488557
v 2.712114 3.562050 2.480366
v 2.731110 3.573073 2.469343
v 2.746699 3.586505 2.455911
v 2.758283 3.601830 2.440586
v 2.765416 3.618458 2.423958
v 2.767825 3.635750 2.406666
v 2.765416 3.653043 2.389373
v 2.758283 3.669671 2.372745
v 2.746699 3.684995 2.357421
v 2.731110 3.698427 2.343989
v 2.712114 3.709450 2.332965
v 2.690442 3.717642 2.324774
v 2.666926 3.722686 2.319730
vt 0.000000 0.000000
vt 0.000000 0.000000
vt 0.000000 0.000000
vt 0.000000 0.000000
vt 0.000000 0.000000
vt 0.000000 0.000000
vt 0.000000 0.000000
vt 0.000000 0.000000
vt 0.000000 0.000000
vt 0.000000 0.000000
vt 0.000000 0.000000
vt 0.000000 0.000000
vt 0.000000 0.000000
vt 0.000000 0.000000
vt 0.000000 0.000000
vt 0.000000 0.000000
vt 0.000000 0.000000
vt 0.000000 0.000000
vt 0.000000 0.000000
vt 0.000000 0.000000
vt 0.000000 0.000000
vt 0.000000 0.000000
vt 0.000000 0.000000
vt 0.000000 0.000000
vt 0.000000 0.000000
vt 0.000000 0.000000
vt 0.000000 0.000000
vt 0.000000 0.000000
vt 0.000000 0.000000
vt 0.000000 0.000000
vt 0.000000 0.000000
vt 0.000000 0.000000
vn 0.0000 0.7071 0.7071
vn 0.0000 0.7072 0.7071
vn 0.0001 0.7070 0.7072
vn -0.0001 0.7071 0.7071
vn 0.0000 0.7072 0.7070
vn 0.0001 0.7072 0.7071
s off
f 33/33/2 41/34/2 49/35/2
f 33/33/2 34/36/2 37/37/2
f 34/36/2 35/38/2 37/37/2
f 35/38/3 36/39/3 37/37/3
f 37/37/4 38/40/4 39/41/4
f 39/41/5 40/42/5 37/37/5
f 40/42/2 41/34/2 37/37/2
f 41/34/2 42/43/2 45/44/2
f 42/43/2 43/45/2 45/44/2
f 43/45/2 44/46/2 45/44/2
f 45/44/6 46/47/6 47/48/6
f 47/48/2 48/49/2 49/35/2
f 49/35/2 50/50/2 51/51/2
f 51/51/6 52/52/6 53/53/6
f 53/53/2 54/54/2 55/55/2
f 55/55/2 56/56/2 53/53/2
f 56/56/2 57/57/2 53/53/2
f 57/57/7 58/58/7 59/59/7
f 59/59/2 60/60/2 57/57/2
f 60/60/2 61/61/2 57/57/2
f 61/61/2 62/62/2 63/63/2
f 63/63/2 64/64/2 61/61/2
f 64/64/2 33/33/2 61/61/2
f 45/44/2 47/48/2 41/34/2
f 47/48/2 49/35/2 41/34/2
f 49/35/2 51/51/2 57/57/2
f 51/51/2 53/53/2 57/57/2
f 33/33/2 37/37/2 41/34/2
f 57/57/2 61/61/2 49/35/2
f 61/61/2 33/33/2 49/35/2
o floor_1_Plane
v -8.000000 -10.297008 0.000000
v 0.000000 -10.297008 0.000000
v -8.000000 10.786884 0.000000
v 0.000000 10.786884 0.000000
vt 1.000000 0.000000
vt 0.000000 1.000000
vt 0.000000 0.000000
vt 1.000000 1.000000
vn 0.0000 0.0000 1.0000
s off
f 66/65/8 67/66/8 65/67/8
f 66/65/8 68/68/8 67/66/8
o floor_2_Plane.001
v 0.000000 -10.297008 0.000000
v 8.000000 -10.297008 0.000000
v 0.000000 10.846377 0.000000
v 8.000000 10.846377 0.000000
vt 1.000000 0.000000
vt 0.000000 1.000000
vt 0.000000 0.000000
vt 1.000000 1.000000
vn 0.0000 0.0000 1.0000
s off
f 70/69/9 71/70/9 69/71/9
f 70/69/9 72/72/9 71/70/9
o wall_Plane.004
v -0.012500 -6.256560 6.490585
v -0.012500 -6.256560 -0.214079
v -0.012500 10.916143 6.490585
v -0.012500 10.916143 -0.214079
v 0.012500 10.916143 6.490585
v 0.012500 -6.256560 6.490585
v 0.012500 -6.256560 -0.214079
v 0.012500 10.916143 -0.214079
vt 0.000000 1.000000
vt 1.000000 0.000000
vt 0.000000 0.000000
vt 1.000000 0.000000
vt 0.000000 1.000000
vt 0.000000 0.000000
vt 1.000000 1.000000
vt 1.000000 1.000000
vn -1.0000 0.0000 -0.0000
vn 1.0000 0.0000 0.0000
vn 0.0000 1.0000 0.0000
vn 0.0000 -1.0000 0.0000
vn 0.0000 0.0000 -1.0000
vn 0.0000 0.0000 1.0000
s off
f 75/73/10 74/74/10 73/75/10
f 79/76/11 77/77/11 78/78/11
f 75/73/12 80/79/12 76/80/12
f 74/74/13 78/78/13 73/75/13
f 76/80/14 79/76/14 74/74/14
f 73/75/15 77/77/15 75/73/15
f 75/73/10 76/80/10 74/74/10
f 79/76/11 80/79/11 77/77/11
f 75/73/12 77/77/12 80/79/12
f 74/74/13 79/76/13 78/78/13
f 76/80/14 80/79/14 79/76/14
f 73/75/15 78/78/15 77/77/15
